<svg width="220" height="220" viewBox="0 0 220 220" fill="none" xmlns="http://www.w3.org/2000/svg">
<path d="M46 137L45 131.5L46.5 128.5L49 124.5L52 120.5L56 116L59 112.5L62 109.5L66.5 106L72 102.5L76.5 99.5L80.5 97.5L86 94.5L90 93.5L95 92.5L99.5 91.5L105.5 91H110.5L116 91.5L121 92.5L127.5 94C129.333 94.5 133.2 95.5 134 95.5C134.8 95.5 137.333 96.8333 138.5 97.5L142.5 99.5L141.5 102.5L140 108L139 113V119L140 125.5L142 131L145 134.5L147.5 137L149.5 139L151 141.5L152.5 145.5L153 150L153.5 155V159.5V164.5L153 172.5L149.5 178L145 182.5L139.5 187L132.5 192L125 197L117.5 200L112 201.5L105.5 202.5H96.5L87 200.5L78 197L70.5 192L64.5 188L59 182L53.5 174.5L50.5 168.5L49 161L48 152L47 144L46 137Z" fill="#FFFEFE" stroke="black"/>
<path id="L_middle" d="M89.5 80C89.5 80 88.6579 88 88.5789 88C88.5 88 87 94.5 87 94.5L91 93.5C92.038 93.3399 94 93 94 93L102.717 91.6924L104 91.5H106.474H109.632C110.5 91.5 116.298 91.8333 117 91.5L116 89.5L115.5 88L114.5 85L114 81.5L113.5 75.5L113 70.5V64V58.5V52V45V38.5L112.5 32L111.5 25L109 19L105.5 15H101L97.5263 17.5L94.5 23L92 30.5L90.5 39.5L89.5 51V59.5V68V80Z" fill="#FFDBB4"/>
<path d="M109.632 91.5C110.5 91.5 116.298 91.8333 117 91.5L116 89.5L115.5 88L114.5 85L114 81.5L113.5 75.5L113 70.5V64V58.5V52V45V38.5L112.5 32L111.5 25L109 19L105.5 15H101L97.5263 17.5L94.5 23L92 30.5L90.5 39.5L89.5 51V59.5V68V80C89.5 80 88.6579 88 88.5789 88C88.5 88 87 94.5 87 94.5L91 93.5C92.038 93.3399 94 93 94 93L104 91.5M109.632 91.5C111.574 91.6222 107.5 91.5 109.632 91.5ZM109.632 91.5H106.474H104M104 91.5L102.717 91.6924" stroke="black"/>
<path id="L_index" d="M118.5 87.5L121 82L124 74L128 63L131.5 54L136.5 44L142 34.5L147 29L151.5 26.5L155.5 27L158.5 30.5V35.5V41.5L157.5 47.5L155.5 55.5L153.5 63L151 70L148 79L145.5 87.5L144 94L142.5 99.5L135.713 96L127.118 94L116.5 91L118.5 87.5Z" fill="#CEFC96" stroke="black"/>
<path id="L_ring" d="M62 101.5L62.5 106L63 108.5L66 106.5L69 104.5L73.5 101.5L78.5 98.5L82.5 96.5L86 94.5L85 94L83.5 92.5L82 90L80.5 87L78.5 82.5L77 79L75.5 74.5L74 70.5L72.5 66.5L71.5 63L70 58.5L68.5 54L67 49.5L65.5 45.5L64 41.5L62.5 37.5L61 34.5L58.5 32L55 31.5L51.5 32L48.5 34L47 37L46.5 41.5V46.5L47.5 52L49 57.5L51 64L53.5 70.5L55.5 76L57.5 81.5L59 87L60.5 92L61.5 97L62 101.5Z" fill="#B0E3FF" stroke="black"/>
<path id="L_pinky" d="M41 125.5L43.5 129L45 131L47.5 127L50 123L53 119L56.5 115.5L60.5 111L62.5 109L60.5 108.5L58 107.5L54.5 105.5L52 103L50 100.5L47.5 97.5L45 94.5L42.5 91L40 87L38 84L36 80.5L34 77L32 73.5L29.5 70L25.5 67H23L20 68.5L19 72.5V78L20 84L22 89.5L25.5 97.5L28 103L31 109.5L34 114.5L38 121L41 125.5Z" fill="#FCA6BD" stroke="black"/>
<path id="L_thumb" d="M157 135.5L153.5 137.5L150 139L152 143.5L153 148.5L153.5 153.5V159.5V166V172L157.5 168.5L162 164L166 159.5L171.5 153.5L176.5 148.5L182 143.5L187.5 138.5L192 133.5L196 128L198.5 124.5L200.5 119L199 114.5L196 112H190L184.5 113.5L179 116.5L173.5 120.5L169 124.5L165 128.5L160.5 132.5L157 135.5Z" fill="#DFC2FF" stroke="black"/>
</svg>
