<svg width="220" height="220" viewBox="0 0 220 220" fill="none" xmlns="http://www.w3.org/2000/svg">
<path d="M173.5 138L174.5 132.5L173 129.5L170.5 125.5L167.5 121.5L163.5 117L160.5 113.5L157.5 110.5L153 107L147.5 103.5L143 100.5L139 98.5L133.5 95.5L129.5 94.5L124.5 93.5L120 92.5L114 92H109L103.5 92.5L98.5 93.5L92 95C90.1667 95.5 86.3 96.5 85.5 96.5C84.7 96.5 82.1667 97.8333 81 98.5L77 100.5L77.5 104L78.5 109L79.5 114.5V120L78.5 126.5L77 131.5L74.5 135.5L72 138L70 140L68.5 142.5L67 146.5L66.5 151L66 156V160.5V165.5L66.5 173.5L70 179L74.5 183.5L80 188L87 193L94.5 198L102 201L107.5 202.5L114 203.5H123L132.5 201.5L141.5 198L149 193L155 189L160.5 183L166 175.5L169 169.5L170.5 162L171.5 153L172.5 145L173.5 138Z" fill="#FFFEFE" stroke="black"/>
<path id="R_middle" d="M130 81C130 81 130.842 89 130.921 89C131 89 132.5 95.5 132.5 95.5L128.5 94.5C127.462 94.3399 125.5 94 125.5 94L116.783 92.6924L115.5 92.5H113.026H109.868C109 92.5 103.202 92.8333 102.5 92.5L103.5 90.5L104 89L105 86L105.5 82.5L106 76.5L106.5 71.5V65V59.5V53V46V39.5L107 33L108 26L110.5 20L114 16H118.5L121.974 18.5L125 24L127.5 31.5L129 40.5L130 52V60.5V69V81Z" fill="#FFDBB4"/>
<path d="M109.868 92.5C109 92.5 103.202 92.8333 102.5 92.5L103.5 90.5L104 89L105 86L105.5 82.5L106 76.5L106.5 71.5V65V59.5V53V46V39.5L107 33L108 26L110.5 20L114 16H118.5L121.974 18.5L125 24L127.5 31.5L129 40.5L130 52V60.5V69V81C130 81 130.842 89 130.921 89C131 89 132.5 95.5 132.5 95.5L128.5 94.5C127.462 94.3399 125.5 94 125.5 94L115.5 92.5M109.868 92.5C107.926 92.6222 112 92.5 109.868 92.5ZM109.868 92.5H113.026H115.5M115.5 92.5L116.783 92.6924" stroke="black"/>
<path id="R_index" d="M101 88.5L98.5 83L95.5 75L91.5 64L88 55L83 45L77.5 35.5L72.5 30L68 27.5L64 28L61 31.5V36.5V42.5L62 48.5L64 56.5L66 64L68.5 71L71.5 80L74 88.5L75.5 95L77 100.5L83.7865 97L92.382 95L103 92L101 88.5Z" fill="#CEFC96" stroke="black"/>
<path id="R_ring" d="M157.5 102.5L157 107L156.5 109.5L153.5 107.5L150.5 105.5L146 102.5L141 99.5L137 97.5L133.5 95.5L134.5 95L136 93.5L137.5 91L139 88L141 83.5L142.5 80L144 75.5L145.5 71.5L147 67.5L148 64L149.5 59.5L151 55L152.5 50.5L154 46.5L155.5 42.5L157 38.5L158.5 35.5L161 33L164.5 32.5L168 33L171 35L172.5 38L173 42.5V47.5L172 53L170.5 58.5L168.5 65L166 71.5L164 77L162 82.5L160.5 88L159 93L158 98L157.5 102.5Z" fill="#B0E3FF" stroke="black"/>
<path id="R_pinky" d="M178.5 126.5L176 130L174.5 132L172 128L169.5 124L166.5 120L163 116.5L159 112L157 110L159 109.5L161.5 108.5L165 106.5L167.5 104L169.5 101.5L172 98.5L174.5 95.5L177 92L179.5 88L181.5 85L183.5 81.5L185.5 78L187.5 74.5L190 71L194 68H196.5L199.5 69.5L200.5 73.5V79L199.5 85L197.5 90.5L194 98.5L191.5 104L188.5 110.5L185.5 115.5L181.5 122L178.5 126.5Z" fill="#FCA6BD" stroke="black"/>
<path id="R_thumb" d="M62.5 136.5L66 138.5L69.5 140L67.5 144.5L66.5 149.5L66 154.5V160.5V167V173L62 169.5L57.5 165L53.5 160.5L48 154.5L43 149.5L37.5 144.5L32 139.5L27.5 134.5L23.5 129L21 125.5L19 120L20.5 115.5L23.5 113H29.5L35 114.5L40.5 117.5L46 121.5L50.5 125.5L54.5 129.5L59 133.5L62.5 136.5Z" fill="#DFC2FF" stroke="black"/>
</svg>
